<svg width="198" height="282" viewBox="0 0 198 282" fill="none" xmlns="http://www.w3.org/2000/svg">
<path d="M196.978 259.007C196.078 254.277 189.323 248.273 189.323 248.273C189.323 248.273 196.629 232.849 194.502 205.643C193.119 187.964 188.395 173.063 188.031 171.973C187.669 170.883 188.758 161.995 182.579 142.452C181.126 136.72 180.763 100.013 176.038 89.8372C175.935 89.6306 175.831 89.4532 175.727 89.2732C176.985 87.6705 177.855 86.1812 177.855 85.1119C177.855 81.1146 169.859 66.5772 169.859 66.5772C169.859 66.5772 173.131 65.4865 172.405 63.3052C171.677 61.1252 168.77 57.4919 168.77 57.4919C168.77 57.4919 170.609 52.7666 170.609 49.2826C170.609 45.7972 168.774 43.0466 168.774 43.0466C168.774 43.0466 170.242 6.91453 164.006 0.678528C160.705 -1.52281 143.097 16.8185 143.097 16.8185C143.097 16.8185 124.855 15.8532 116.369 18.0785C116.369 18.0785 103.083 2.76654 98.806 3.44254C94.5273 4.11854 97.0046 34.2906 97.0046 34.2906C97.0046 34.2906 91.6006 49.3759 91.6006 50.9532C91.6006 52.5292 93.402 53.6546 93.402 53.6546C93.402 53.6546 90.6993 53.8798 91.6006 55.6812C92.5006 57.4825 97.6806 66.0385 97.6806 66.0385C97.6806 66.0385 97.0047 69.4159 95.654 73.6945C94.302 77.9719 94.978 80.6745 94.302 83.1519C93.6273 85.6292 90.3326 90.5812 91.4166 91.9332C92.5006 93.2839 94.5273 92.8332 94.5273 92.8332C94.5273 92.8332 93.6273 94.1852 94.302 96.4372C94.978 98.6879 108.938 113.773 106.462 113.324C103.985 112.873 99.482 106.569 98.5806 106.569C97.6806 106.569 95.8793 134.715 95.8793 134.715C95.8793 134.715 92.726 157.456 86.6473 170.291C80.5673 183.125 74.938 201.364 74.4886 215.324L74.038 216.225C74.038 216.225 36.2092 207.668 8.73945 236.94C1.53372 244.821 -1.61895 265.987 3.10971 268.689C5.58678 269.815 4.68572 263.06 4.68572 263.06C4.68572 263.06 11.441 280.172 16.6201 281.297C21.7988 282.424 19.5472 278.161 19.5472 278.161C19.5472 278.161 32.6066 283.775 33.9581 280.397C35.3092 277.02 32.6066 274.993 32.6066 274.993C32.6066 274.993 35.7586 276.119 35.9842 274.544C36.2092 272.967 18.8717 262.159 29.0045 247.299C39.1362 232.437 73.1367 236.265 73.1367 236.265C73.1367 236.265 74.4887 246.623 81.918 249.775C81.4673 249.549 77.19 256.529 80.1166 262.384C83.0446 268.239 103.759 266.437 103.759 266.437C103.759 266.437 105.561 270.94 116.369 271.616C127.177 272.292 130.554 269.589 130.779 264.411C131.005 259.232 130.779 254.277 130.779 254.277L141.137 253.828C141.137 253.828 138.885 265.987 143.839 271.391C148.793 276.795 166.355 276.569 167.707 271.165C169.058 265.761 165.681 261.933 162.302 259.232C158.925 256.529 159.826 253.377 159.826 253.377C159.826 253.377 163.879 254.052 166.131 256.079C168.382 258.105 168.833 266.437 180.766 268.013C192.701 269.589 197.879 263.735 196.978 259.007Z" fill="#2B2A2B"/>
</svg>
