<svg width="270" height="253" viewBox="0 0 270 253" fill="none" xmlns="http://www.w3.org/2000/svg">
<path d="M269.034 238.692C267.575 232.224 261.523 230.973 261.523 230.973C261.523 230.973 257.56 213.24 258.395 197.384C259.23 181.528 261.94 155.658 261.94 155.658C261.94 155.658 266.375 118.382 263.192 98.4943C262.358 93.277 256.726 60.7317 257.56 57.6023C258.395 54.473 263.402 53.4303 264.652 50.2997C265.906 47.1703 264.862 43.8317 264.862 43.8317C264.862 43.8317 262.15 48.005 261.315 46.753C260.48 45.501 264.027 42.789 264.444 41.329C264.862 39.869 264.444 28.8117 261.523 26.9343C258.603 25.0557 250.883 26.9343 250.883 26.9343C250.883 26.9343 235.654 24.8477 232.734 25.265C229.811 25.6823 227.726 27.1423 227.726 27.1423C227.726 27.1423 220.423 15.4583 217.92 16.9196C215.416 18.381 215.416 32.7743 215.416 32.7743C215.416 32.7743 204.776 19.005 201.856 20.4663C198.935 21.9263 198.518 40.077 199.562 46.3357C200.604 52.5957 201.022 76.169 197.058 82.6383L196.85 83.4717C196.85 83.4717 157.835 62.401 122.159 72.4143C86.483 82.429 66.9604 98.3596 66.9604 98.3596C60.6497 95.0183 36.8297 81.8037 29.319 56.3503C26.607 49.8837 29.7377 29.2276 27.4417 28.393C25.1471 27.5596 23.687 29.6463 23.687 29.6463C23.687 29.6463 25.5644 1.48101 21.1831 2.31567C16.8017 3.15034 16.3844 5.23566 16.3844 5.23566C16.3844 5.23566 16.7084 0.0209877 13.0004 1.06365C9.29106 2.10632 8.03906 9.409 8.03906 9.409C8.03906 9.409 5.32706 7.94766 3.86706 11.7037C2.40706 15.4583 3.86706 24.6383 3.86706 24.6383C3.86706 24.6383 0.3204 29.4383 0.111067 34.653C-0.0969329 39.869 8.66572 58.437 8.66572 58.437C8.66572 58.437 3.24173 54.889 3.24173 58.645C3.24173 62.401 9.9164 66.9903 9.9164 66.9903C9.9164 66.9903 6.36971 65.9463 7.62305 69.4943C8.87371 73.041 11.455 74.501 11.455 74.501C11.455 74.501 7.15104 78.257 11.455 83.0543C15.7577 87.853 22.8524 91.3997 22.8524 91.3997C22.8524 91.3997 24.3124 101.83 28.4844 105.588C32.6577 109.342 38.7071 109.342 38.7071 109.342C38.7071 109.342 36.8297 112.472 38.9164 113.722C41.0031 114.976 44.1324 113.722 44.1324 113.722C44.1324 113.722 42.0457 115.601 44.3417 117.061C46.6351 118.522 51.6431 117.061 51.6431 117.061C51.6431 117.061 48.5137 120.4 51.4337 122.068C54.3551 123.737 58.527 123.529 58.527 123.529C58.527 123.529 53.9377 126.868 56.2337 127.493C58.5271 128.118 60.1964 126.449 60.1964 126.449C60.1964 126.449 56.2337 130.414 58.527 131.04C60.823 131.665 62.0751 128.537 62.0751 128.537C62.0751 128.537 58.3191 145.436 61.0311 154.406C63.7444 163.377 82.2097 170.457 83.563 181.736C84.1897 186.952 75.0097 218.664 75.8444 221.585C76.6791 224.505 87.3177 236.814 88.7791 241.822C90.2404 246.828 90.0297 249.331 98.1671 251.628C106.303 253.922 116.944 253.296 118.195 249.75C119.447 246.204 121.116 242.865 117.152 241.613C113.19 240.361 105.052 241.613 105.052 241.613C105.052 241.613 95.2457 225.966 94.2031 221.166C93.1604 216.369 117.74 184.866 119.636 174.017C121.534 163.168 110.894 149.19 112.355 148.356C113.814 147.521 124.036 163.168 122.578 173.182C121.116 183.197 99.6284 215.326 99.8364 216.994C100.044 218.664 112.144 238.901 112.144 238.901C112.144 238.901 122.159 238.066 121.324 246.619C121.743 246.828 134.886 248.497 135.72 239.736C135.928 235.979 131.548 232.948 125.498 234.882C125.914 234.312 111.936 214.282 113.398 209.693C114.856 205.104 130.922 192.377 133.216 185.493C135.512 178.606 136.971 171.097 136.971 171.097C136.971 171.097 167.223 168.384 183.496 170.678C183.496 170.678 178.28 196.758 179.742 199.47C181.202 202.182 182.454 201.348 182.454 201.348C182.454 201.348 177.446 231.808 178.698 242.03C179.95 252.253 182.87 253.505 192.676 251.628C202.482 249.75 202.899 246.619 200.187 242.657C197.474 238.692 192.05 237.858 192.05 237.858C192.05 237.858 208.22 194.973 213.747 184.866C221.05 171.513 238.783 143.14 240.035 144.184C241.287 145.226 225.431 170.678 225.222 172.14C225.014 173.601 237.323 198.636 241.079 215.952C242.747 221.793 247.752 228.248 248.588 236.605C248.798 238.692 248.798 244.326 254.848 245.785C260.898 247.247 270.495 245.16 269.034 238.692Z" fill="#2B2A2B"/>
</svg>
