<svg width="532" height="283" viewBox="0 0 532 283" fill="none" xmlns="http://www.w3.org/2000/svg">
<path d="M511.635 28.0345C511.635 28.0345 528.926 51.9771 531.144 59.5145C533.36 67.0518 527.153 127.734 527.597 135.744C528.04 143.754 531.959 164.138 531.623 169.418C531.288 174.697 528.965 190.744 529.599 194.122C530.232 197.501 532 205.314 531.644 208.904C531.288 212.493 529.811 217.561 526.432 217.984C523.053 218.405 521.664 216.082 521.664 216.082C521.664 216.082 518.408 219.353 513.763 218.034C513.552 217.984 506.583 216.716 509.117 208.904C511.651 201.09 516.296 204.892 517.352 196.657C518.408 188.421 507.217 163.294 507.217 163.294C507.217 163.294 517.775 133.31 517.563 126.132C517.352 123.386 500.452 173.626 486.524 194.756C480.4 204.048 456.119 224.318 453.163 227.485C450.205 230.652 438.171 244.166 438.171 244.166C438.171 244.166 438.171 249.445 431.836 256.201C425.501 262.958 420.223 265.493 420.011 267.393C419.8 269.293 423.601 274.573 422.335 277.106C421.067 279.64 417.477 280.062 415.787 279.428C414.099 278.796 413.465 273.938 412.62 274.36C411.776 274.784 411.776 274.784 411.776 274.784C411.776 274.784 413.888 279.428 409.876 281.54C405.864 283.652 402.696 280.484 402.696 280.484L403.963 277.106C403.963 277.106 405.864 284.681 397.207 282.265C388.549 279.852 393.828 272.916 393.828 272.916C393.828 272.916 390.451 275.482 388.76 272.916C387.071 270.349 392.139 264.858 395.305 261.692C398.473 258.524 401.64 247.545 405.441 244.166C409.241 240.788 416.843 236.776 416.843 236.776C416.843 236.776 410.508 237.198 407.553 238.465C404.597 239.732 386.227 241.21 383.481 242.688L362.367 259.58C362.367 259.58 361.311 268.87 358.355 270.137C355.397 271.405 353.499 269.926 353.709 268.87C353.92 267.816 354.311 265.493 353.693 265.704C353.075 265.914 351.175 269.926 351.175 269.926C351.175 269.926 347.164 277.528 344.419 278.161C341.675 278.796 338.295 276.684 338.295 276.684C338.295 276.684 333.016 278.373 330.06 275.628C327.104 272.882 335.972 270.982 335.972 270.982L332.383 275.628C332.383 275.628 326.893 276.961 325.837 272.916C324.781 268.87 322.671 268.237 334.916 259.58C336.183 257.468 356.876 230.23 371.235 218.405C378.413 212.704 380.315 208.692 380.315 208.692C380.315 208.692 392.561 216.082 395.305 215.872C397.84 215.661 384.959 210.593 381.371 206.792C380.315 204.681 376.936 200.457 376.725 198.134C376.513 195.812 378.837 196.234 378.837 196.234C378.837 196.234 375.669 196.022 376.725 193.912C377.781 191.8 383.481 182.088 384.327 179.976C385.172 177.864 389.816 147.036 393.195 146.402C396.572 145.769 410.721 164.772 410.721 164.772L423.177 166.673C423.177 166.673 436.059 151.048 437.959 151.681C439.859 152.314 441.971 174.274 442.816 174.064C443.66 173.853 440.493 147.881 438.381 148.092C436.271 148.302 429.289 156.749 428.345 156.538C427.401 156.326 442.255 123.08 443.66 114.941C444.309 111.182 438.343 42.3558 466.335 24.9198C470.005 23.5424 436.967 5.64777 414.025 22.1664C391.083 38.6851 399.077 68.3891 397.275 69.3918C395.471 70.3931 394.469 69.3918 394.469 69.3918C394.469 69.3918 396.273 78.0078 390.863 77.4078C385.452 76.8051 384.249 69.3918 384.249 69.3918C384.249 69.3918 381.445 71.1944 381.244 63.5798C381.044 55.9664 373.872 0.00776425 443.089 0.00776425C482.428 -0.489569 507.741 22.5171 511.635 28.0345Z" fill="#E94F37"/>
<path d="M20.0569 28.0345C20.0569 28.0345 2.76492 51.9771 0.547587 59.5145C-1.66841 67.0518 4.53827 127.734 4.09427 135.744C3.6516 143.754 -0.267124 164.138 0.0688762 169.418C0.403543 174.697 2.72623 190.744 2.0929 194.122C1.45957 197.501 -0.308413 205.314 0.0475872 208.904C0.403587 212.493 1.8809 217.561 5.25957 217.984C8.63823 218.405 10.0276 216.082 10.0276 216.082C10.0276 216.082 13.2836 219.353 17.9289 218.034C18.1396 217.984 25.1089 216.716 22.5742 208.904C20.0409 201.09 15.3956 204.892 14.3396 196.657C13.2836 188.421 24.4742 163.294 24.4742 163.294C24.4742 163.294 13.9169 133.31 14.1289 126.132C14.3396 123.386 31.2396 173.626 45.1676 194.756C51.2916 204.048 75.5729 224.318 78.5289 227.485C81.4862 230.652 93.5209 244.166 93.5209 244.166C93.5209 244.166 93.5209 249.445 99.8555 256.201C106.19 262.958 111.469 265.493 111.681 267.393C111.892 269.293 108.09 274.573 109.357 277.106C110.625 279.64 114.214 280.062 115.905 279.428C117.593 278.796 118.226 273.938 119.072 274.36C119.916 274.784 119.916 274.784 119.916 274.784C119.916 274.784 117.804 279.428 121.816 281.54C125.828 283.652 128.996 280.484 128.996 280.484L127.729 277.106C127.729 277.106 125.828 284.681 134.485 282.265C143.142 279.852 137.864 272.916 137.864 272.916C137.864 272.916 141.241 275.482 142.932 272.916C144.621 270.349 139.553 264.858 136.386 261.692C133.218 258.524 130.052 247.545 126.25 244.166C122.45 240.788 114.849 236.776 114.849 236.776C114.849 236.776 121.184 237.198 124.138 238.465C127.094 239.732 145.465 241.21 148.21 242.688L169.325 259.58C169.325 259.58 170.381 268.87 173.337 270.137C176.294 271.405 178.193 269.926 177.982 268.87C177.772 267.816 177.381 265.493 177.998 265.704C178.617 265.914 180.517 269.926 180.517 269.926C180.517 269.926 184.528 277.528 187.273 278.161C190.017 278.796 193.397 276.684 193.397 276.684C193.397 276.684 198.676 278.373 201.632 275.628C204.588 272.882 195.72 270.982 195.72 270.982L199.309 275.628C199.309 275.628 204.798 276.961 205.854 272.916C206.91 268.87 209.021 268.237 196.776 259.58C195.509 257.468 174.816 230.23 160.457 218.405C153.278 212.704 151.377 208.692 151.377 208.692C151.377 208.692 139.13 216.082 136.386 215.872C133.852 215.661 146.733 210.593 150.321 206.792C151.377 204.681 154.756 200.457 154.966 198.134C155.178 195.812 152.854 196.234 152.854 196.234C152.854 196.234 156.022 196.022 154.966 193.912C153.91 191.8 148.21 182.088 147.365 179.976C146.52 177.864 141.876 147.036 138.497 146.402C135.12 145.769 120.97 164.772 120.97 164.772L108.514 166.673C108.514 166.673 95.6329 151.048 93.7329 151.681C91.8329 152.314 89.7209 174.274 88.8756 174.064C88.0316 173.853 91.1982 147.881 93.3102 148.092C95.4209 148.302 102.402 156.749 103.346 156.538C104.29 156.326 89.4369 123.08 88.0316 114.941C87.3822 111.182 93.3489 42.3558 65.3569 24.9198C61.6862 23.5424 94.7249 5.64777 117.666 22.1664C140.609 38.6851 132.614 68.3891 134.417 69.3918C136.221 70.3931 137.222 69.3918 137.222 69.3918C137.222 69.3918 135.418 78.0078 140.829 77.4078C146.24 76.8051 147.442 69.3918 147.442 69.3918C147.442 69.3918 150.246 71.1944 150.448 63.5798C150.648 55.9664 157.82 0.00776425 88.6022 0.00776425C49.2636 -0.489569 23.9502 22.5171 20.0569 28.0345Z" fill="#1C1815"/>
</svg>
